<?xml version="1.0" encoding="utf-8"?>
<svg version="1.1" id="svg2" width="168.88933" height="62.666668" viewBox="0 0 168.88933 62.666668" xmlns="http://www.w3.org/2000/svg">
  <defs id="defs6">
    <clipPath clipPathUnits="userSpaceOnUse" id="clipPath26">
      <path d="M 0,47 H 126.667 V 0 H 0 Z" id="path24"/>
    </clipPath>
  </defs>
  <g id="g10" transform="matrix(1.3333333,0,0,-1.3333333,0,62.666667)">
    <g id="g12" transform="translate(33.8047,22.1646)">
      <path d="M 0,0 -2.407,7.006 -4.965,0 Z m -3.53,9.359 h 2.429 L 4.652,-6.499 H 2.299 l -1.608,4.75 h -6.272 l -1.716,-4.75 h -2.202 z" style="fill-opacity: 1; fill-rule: nonzero; stroke: none; fill: rgb(254, 140, 33);" id="path14"/>
    </g>
    <g id="g16" transform="translate(40.7134,27.2271)">
      <path d="M 0,0 3.087,-9.413 6.314,0 H 8.441 L 4.08,-11.561 H 2.008 L -2.256,0 Z" style="fill-opacity: 1; fill-rule: nonzero; stroke: none; fill: rgb(254, 140, 33);" id="path18"/>
    </g>
    <g id="g20">
      <g id="g22" clip-path="url(#clipPath26)">
        <g id="g28" transform="translate(58.0542,18.3809)">
          <path d="m 0,0 c 0.479,0.976 0.718,2.061 0.718,3.255 0,1.079 -0.173,1.957 -0.518,2.634 -0.547,1.065 -1.49,1.597 -2.828,1.597 -1.187,0 -2.051,-0.453 -2.591,-1.36 -0.54,-0.907 -0.809,-2.001 -0.809,-3.281 0,-1.231 0.269,-2.256 0.809,-3.076 0.54,-0.821 1.396,-1.231 2.569,-1.231 1.288,0 2.171,0.487 2.65,1.462 M 1.204,7.691 C 2.233,6.698 2.748,5.237 2.748,3.309 c 0,-1.864 -0.454,-3.404 -1.361,-4.621 -0.907,-1.215 -2.313,-1.824 -4.22,-1.824 -1.591,0 -2.854,0.538 -3.789,1.615 -0.936,1.075 -1.403,2.52 -1.403,4.334 0,1.942 0.492,3.489 1.478,4.641 0.986,1.151 2.31,1.727 3.973,1.727 1.49,0 2.749,-0.496 3.778,-1.49" style="fill-opacity: 1; fill-rule: nonzero; stroke: none; fill: rgb(254, 140, 33);" id="path30"/>
        </g>
        <g id="g32" transform="translate(63.1118,27.2271)">
          <path d="m 0,0 h 1.846 v -1.641 c 0.546,0.677 1.126,1.162 1.737,1.458 0.612,0.295 1.292,0.442 2.041,0.442 1.64,0 2.749,-0.572 3.325,-1.716 0.316,-0.626 0.474,-1.522 0.474,-2.688 v -7.416 H 7.448 v 7.287 c 0,0.705 -0.105,1.274 -0.313,1.705 -0.345,0.72 -0.971,1.08 -1.879,1.08 -0.46,0 -0.838,-0.047 -1.132,-0.141 C 3.59,-1.788 3.123,-2.104 2.72,-2.58 2.396,-2.961 2.186,-3.355 2.088,-3.762 1.992,-4.168 1.943,-4.75 1.943,-5.505 v -6.056 H 0 Z" style="fill-opacity: 1; fill-rule: nonzero; stroke: none; fill: rgb(254, 140, 33);" id="path34"/>
        </g>
        <g id="g36" transform="translate(75.8711,31.5234)">
          <path d="M 0,0 H 11.561 V -1.943 H 2.094 v -4.814 h 8.754 V -8.592 H 2.094 v -5.376 h 9.629 v -1.889 H 0 Z" style="fill-opacity: 1; fill-rule: nonzero; stroke: none; fill: rgb(255, 187, 15);" id="path38"/>
        </g>
        <g id="g40" transform="translate(90.4648,31.5234)">
          <path d="m 0,0 h 2.17 v -6.552 h 8.246 V 0 h 2.17 v -15.857 h -2.17 v 7.416 H 2.17 v -7.416 H 0 Z" style="fill-opacity: 1; fill-rule: nonzero; stroke: none; fill: rgb(255, 187, 15);" id="path42"/>
        </g>
        <g id="g44" transform="translate(113.748,24.2588)">
          <path d="m 0,0 c 1.008,0 1.805,0.201 2.392,0.604 0.586,0.403 0.879,1.13 0.879,2.181 0,1.13 -0.411,1.9 -1.231,2.31 C 1.602,5.311 1.015,5.419 0.281,5.419 h -5.246 l 0,-5.419 z m -7.113,7.265 h 7.34 c 1.209,0 2.206,-0.177 2.99,-0.529 C 4.706,6.059 5.451,4.811 5.451,2.99 5.451,2.04 5.255,1.263 4.863,0.658 4.471,0.054 3.922,-0.432 3.217,-0.799 3.836,-1.051 4.302,-1.382 4.615,-1.792 4.928,-2.202 5.103,-2.868 5.139,-3.789 L 5.214,-5.915 C 5.235,-6.52 5.286,-6.97 5.365,-7.265 5.494,-7.769 5.725,-8.093 6.056,-8.236 V -8.593 H 3.422 c -0.072,0.137 -0.13,0.314 -0.173,0.53 -0.043,0.215 -0.079,0.632 -0.107,1.251 l -0.13,2.645 c -0.051,1.036 -0.436,1.731 -1.156,2.084 -0.41,0.194 -1.053,0.291 -1.931,0.291 h -4.89 v -6.801 h -2.148 z" style="fill-opacity: 1; fill-rule: nonzero; stroke: none; fill: rgb(255, 187, 15);" id="path46"/>
        </g>
        <g id="g48" transform="translate(16.9951,22.6934)">
          <path d="m 0,0 c -0.185,0 -0.346,0.102 -0.392,0.247 l -0.275,0.872 -0.981,-3.907 c -0.033,-0.131 -0.175,-0.226 -0.338,-0.226 h -0.002 c -0.165,10e-4 -0.307,0.098 -0.337,0.23 L -3.771,3.512 -4.646,0.258 C -4.687,0.106 -4.85,0 -5.042,0 h -3.063 c 0.82,-0.769 6.397,-5.954 7.334,-6.868 0.032,0.038 6.125,5.709 7.234,6.868 z" style="fill-opacity: 1; fill-rule: nonzero; stroke: none; fill: rgb(254, 85, 33);" id="path50"/>
        </g>
        <g id="g52" transform="translate(25.3657,28.709)">
          <path d="M 0,0 C -0.729,2.025 -2.785,3.256 -5.055,3.013 -6.289,2.881 -7.297,2.344 -8.105,1.466 -8.496,1.042 -8.748,0.542 -9.004,0.043 c -0.038,-0.075 -0.079,-0.148 -0.127,-0.238 -0.131,0.25 -0.252,0.481 -0.372,0.712 -0.948,1.81 -2.911,2.799 -5.033,2.464 -1.804,-0.285 -3.029,-1.28 -3.682,-2.877 -0.374,-0.916 -0.334,-1.864 -0.142,-2.81 0.211,-1.038 0.717,-1.943 1.398,-2.767 0.04,0.014 0.084,0.022 0.13,0.022 h 3.19 l 1.19,4.421 c 0.035,0.129 0.169,0.223 0.342,0.221 0.163,-0.002 0.304,-0.099 0.334,-0.23 l 1.435,-6.245 0.928,3.698 c 0.033,0.129 0.169,0.222 0.33,0.225 0.153,0.005 0.303,-0.086 0.343,-0.212 l 0.591,-1.878 h 6.767 c 0.87,1.018 1.468,2.151 1.59,3.486 C 0.269,-1.297 0.23,-0.64 0,0" style="fill-opacity: 1; fill-rule: nonzero; stroke: none; fill: rgb(254, 85, 33);" id="path54"/>
        </g>
      </g>
    </g>
  </g>
</svg>